<svg width="20" height="23" viewBox="0 0 20 23" fill="none" xmlns="http://www.w3.org/2000/svg">
<path fill="currentColor" fill-rule="evenodd" clip-rule="evenodd" d="M14.5534 0C14.6554 1.31593 14.2341 2.6193 13.3791 3.63335C12.5495 4.65265 11.2926 5.23977 9.96874 5.2263C9.88455 3.94826 10.3181 2.68957 11.1738 1.72747C12.0404 0.752333 13.2471 0.135545 14.5534 0ZM18.7406 7.73254C17.2177 8.65744 16.2807 10.2885 16.2576 12.0544C16.2598 14.0522 17.4709 15.8552 19.3334 16.6334C18.9752 17.783 18.4353 18.8694 17.7336 19.8524C16.7912 21.245 15.8032 22.6055 14.235 22.6307C13.4892 22.6477 12.9857 22.4358 12.4611 22.215C11.9139 21.9847 11.3437 21.7448 10.4514 21.7448C9.50509 21.7448 8.90934 21.9924 8.33477 22.2313C7.83824 22.4378 7.35752 22.6376 6.68004 22.6654C5.18658 22.72 4.0452 21.1791 3.06859 19.7995C1.11663 16.9822 -0.403325 11.86 1.63439 8.37464C2.59127 6.67594 4.3804 5.59801 6.34719 5.53523C7.19422 5.51802 8.00701 5.84054 8.7196 6.1233C9.26457 6.33955 9.75094 6.53255 10.1492 6.53255C10.4993 6.53255 10.9721 6.34717 11.5231 6.13113C12.3911 5.79082 13.4531 5.37441 14.5354 5.48663C16.2171 5.53861 17.7755 6.37094 18.7406 7.73254Z"/>
</svg>
