<svg width="85" height="97" viewBox="0 0 85 97" fill="none" xmlns="http://www.w3.org/2000/svg">
<path d="M23.4892 2C20.3073 5.51864 18.0397 9.36068 16.0424 13.4794C12.6607 20.4532 8.38946 27.228 6.31349 34.612C3.6083 44.234 -0.206157 57.5888 3.61101 67.3806C6.4475 74.6567 17.7874 79.2324 25.351 81.1298C33.2337 83.1073 41.2915 84.6959 49.403 85.7738M49.403 85.7738C51.9676 86.1146 110.403 97.7738 49.403 85.7738Z" stroke="black" stroke-width="3" stroke-linecap="round"/>
<path d="M63 82C66.472 83.2018 80.1565 90.9838 83.5 92.5" stroke="black" stroke-width="3" stroke-linecap="round"/>
<path d="M63 94.8086C67.7943 94.7487 72.4799 93.6917 77.2378 93.2159C79.3077 93.0089 81.376 92.9766 83.4156 92.6367" stroke="black" stroke-width="3" stroke-linecap="round"/>
</svg>
