<svg width="21" height="23" viewBox="0 0 21 23" fill="none" xmlns="http://www.w3.org/2000/svg">
<path d="M1.8107 0.814436L11.9559 10.9999L15.7187 7.22213L4.68821 0.707751C3.72182 0.137024 2.61735 0.25556 1.8107 0.814436Z" fill="#282828"/>
<path d="M0.936401 1.82583L11.015 11.9445L1.1427 21.8561C0.845759 21.4328 0.666748 20.9122 0.666748 20.3291V3.00414C0.666748 2.57241 0.764898 2.17492 0.936401 1.82583Z" fill="#282828"/>
<path d="M2.15983 22.7241C2.91898 23.0973 3.85491 23.1177 4.68819 22.6256L15.3703 16.3171L11.9559 12.8891L2.15983 22.7241Z" fill="#282828"/>
<path d="M16.555 15.6174L19.3561 13.9631C21.1036 12.9311 21.1036 10.4023 19.3562 9.37033L16.9035 7.92183L12.8967 11.9445L16.555 15.6174Z" fill="#282828"/>
</svg>
